<?xml version="1.0" encoding="utf-8"?>
<!-- Generator: Adobe Illustrator 16.0.0, SVG Export Plug-In . SVG Version: 6.00 Build 0)  -->
<!DOCTYPE svg PUBLIC "-//W3C//DTD SVG 1.1//EN" "http://www.w3.org/Graphics/SVG/1.1/DTD/svg11.dtd">
<svg version="1.1" id="Layer_1" xmlns="http://www.w3.org/2000/svg" xmlns:xlink="http://www.w3.org/1999/xlink" x="0px" y="0px"
	 width="240.94px" height="141.73px" viewBox="0 0 240.94 141.73" enable-background="new 0 0 240.94 141.73" xml:space="preserve">
<g>
	<path fill="#3773B2" d="M69.602,86.785v-0.824h0.561v0.824H69.602z M69.602,91.98v-4.297h0.561v4.297H69.602z"/>
	<path fill="#3773B2" d="M71.425,85.961h0.561v5.047c0,0.158,0.044,0.283,0.132,0.375c0.088,0.09,0.212,0.135,0.371,0.135
		c0.061,0,0.132-0.008,0.214-0.023c0.083-0.018,0.16-0.039,0.231-0.066l0.099,0.453c-0.104,0.045-0.232,0.08-0.383,0.107
		c-0.151,0.027-0.282,0.041-0.393,0.041c-0.258,0-0.461-0.072-0.609-0.219c-0.148-0.145-0.223-0.35-0.223-0.613V85.961z"/>
	<path fill="#3773B2" d="M75.498,92.063c-0.313,0-0.601-0.059-0.861-0.178c-0.262-0.117-0.488-0.279-0.681-0.486
		c-0.192-0.205-0.342-0.443-0.449-0.713s-0.161-0.559-0.161-0.865c0-0.303,0.054-0.588,0.161-0.854
		c0.107-0.268,0.256-0.5,0.445-0.701s0.416-0.361,0.681-0.479c0.264-0.119,0.549-0.178,0.857-0.178c0.313,0,0.601,0.059,0.861,0.178
		c0.261,0.117,0.485,0.279,0.672,0.482c0.188,0.203,0.333,0.438,0.438,0.701s0.156,0.543,0.156,0.84c0,0.045,0,0.088,0,0.133
		c0,0.043-0.003,0.074-0.008,0.09h-3.678c0.017,0.232,0.07,0.445,0.16,0.641c0.091,0.195,0.208,0.363,0.351,0.506
		c0.144,0.143,0.307,0.254,0.491,0.334c0.184,0.08,0.381,0.119,0.59,0.119c0.137,0,0.274-0.018,0.412-0.057
		c0.137-0.039,0.264-0.092,0.379-0.156c0.115-0.066,0.22-0.148,0.313-0.244s0.165-0.201,0.215-0.316l0.486,0.131
		c-0.066,0.16-0.16,0.305-0.28,0.434c-0.121,0.129-0.262,0.242-0.421,0.338s-0.335,0.17-0.527,0.223
		C75.907,92.037,75.707,92.063,75.498,92.063z M77.081,89.605c-0.016-0.23-0.069-0.441-0.16-0.631s-0.206-0.354-0.347-0.49
		c-0.14-0.139-0.303-0.246-0.486-0.322c-0.185-0.076-0.381-0.115-0.59-0.115s-0.406,0.039-0.594,0.115
		c-0.187,0.076-0.351,0.184-0.49,0.322c-0.141,0.137-0.253,0.301-0.338,0.494c-0.086,0.193-0.137,0.4-0.153,0.627H77.081z"/>
	<path fill="#3773B2" d="M80.545,91.773c-0.032,0.018-0.081,0.039-0.144,0.066c-0.063,0.027-0.137,0.055-0.219,0.082
		c-0.083,0.027-0.176,0.053-0.28,0.074s-0.215,0.033-0.33,0.033c-0.121,0-0.236-0.016-0.347-0.049
		c-0.109-0.033-0.206-0.084-0.288-0.152c-0.083-0.07-0.148-0.156-0.198-0.26c-0.05-0.105-0.074-0.227-0.074-0.363v-3.076h-0.594
		v-0.445h0.594v-1.451h0.561v1.451h0.99v0.445h-0.99v2.92c0.011,0.158,0.067,0.275,0.169,0.35s0.219,0.111,0.351,0.111
		c0.159,0,0.3-0.025,0.421-0.078s0.198-0.09,0.23-0.111L80.545,91.773z"/>
	<path fill="#3773B2" d="M81.246,86.785v-0.824h0.561v0.824H81.246z M81.246,91.98v-4.297h0.561v4.297H81.246z"/>
	<path fill="#3773B2" d="M83.836,93.02c0.077,0.037,0.182,0.072,0.313,0.102c0.132,0.031,0.27,0.047,0.412,0.047
		c0.313,0,0.47-0.098,0.47-0.289c0-0.109-0.037-0.188-0.111-0.23c-0.074-0.045-0.174-0.066-0.301-0.066
		c-0.115,0-0.236,0.012-0.362,0.037c-0.127,0.025-0.226,0.051-0.297,0.078l0.346-0.643c-0.313-0.018-0.613-0.078-0.898-0.186
		c-0.286-0.107-0.533-0.258-0.742-0.449l0.256-0.381c0.241,0.199,0.487,0.348,0.737,0.445c0.25,0.1,0.519,0.148,0.805,0.148
		c0.346,0,0.622-0.068,0.828-0.209s0.31-0.34,0.31-0.598c0-0.121-0.027-0.223-0.083-0.301c-0.055-0.08-0.136-0.15-0.243-0.211
		c-0.106-0.061-0.241-0.113-0.403-0.16s-0.351-0.096-0.565-0.145c-0.247-0.061-0.462-0.121-0.643-0.182
		c-0.182-0.061-0.332-0.129-0.45-0.207c-0.118-0.076-0.206-0.172-0.264-0.283c-0.058-0.113-0.086-0.256-0.086-0.426
		c0-0.215,0.042-0.404,0.127-0.568c0.086-0.166,0.201-0.301,0.347-0.408s0.316-0.189,0.512-0.244
		c0.194-0.055,0.402-0.082,0.622-0.082c0.33,0,0.63,0.055,0.898,0.16c0.27,0.107,0.487,0.25,0.652,0.426l-0.272,0.33
		c-0.159-0.166-0.354-0.289-0.581-0.371c-0.229-0.082-0.466-0.125-0.714-0.125c-0.148,0-0.286,0.016-0.412,0.047
		c-0.127,0.029-0.238,0.078-0.334,0.145c-0.097,0.064-0.172,0.148-0.227,0.25c-0.056,0.102-0.083,0.223-0.083,0.359
		c0,0.115,0.02,0.209,0.058,0.281c0.039,0.07,0.103,0.133,0.19,0.184c0.088,0.053,0.199,0.1,0.334,0.141s0.298,0.084,0.49,0.129
		c0.275,0.064,0.517,0.131,0.726,0.197s0.384,0.143,0.523,0.23c0.141,0.088,0.246,0.195,0.317,0.322
		c0.072,0.127,0.107,0.279,0.107,0.461c0,0.375-0.136,0.674-0.408,0.9c-0.271,0.225-0.642,0.352-1.108,0.379L84.413,92.4
		c0.05-0.021,0.104-0.035,0.161-0.041s0.108-0.008,0.152-0.008c0.192,0,0.345,0.043,0.458,0.127
		c0.112,0.086,0.169,0.211,0.169,0.375c0,0.188-0.072,0.33-0.215,0.43c-0.143,0.098-0.352,0.148-0.627,0.148
		c-0.159,0-0.308-0.016-0.445-0.045c-0.137-0.031-0.261-0.068-0.371-0.111L83.836,93.02z"/>
	<path fill="#3773B2" d="M87.068,86.785v-0.824h0.561v0.824H87.068z M87.068,91.98v-4.297h0.561v4.297H87.068z"/>
	<path fill="#3773B2" d="M95.257,91.98h-0.561v-2.4c0-0.5-0.079-0.869-0.239-1.105c-0.159-0.236-0.396-0.354-0.709-0.354
		c-0.165,0-0.32,0.029-0.466,0.09s-0.28,0.146-0.404,0.256c-0.123,0.111-0.232,0.24-0.325,0.393
		c-0.094,0.15-0.165,0.316-0.215,0.498v2.623h-0.561v-2.4c0-0.512-0.077-0.883-0.23-1.113c-0.154-0.23-0.391-0.346-0.71-0.346
		c-0.324,0-0.612,0.113-0.865,0.338s-0.435,0.521-0.545,0.891v2.631h-0.561v-4.297h0.512v0.973c0.176-0.33,0.406-0.586,0.692-0.77
		c0.286-0.186,0.603-0.277,0.948-0.277c0.363,0,0.653,0.102,0.87,0.305s0.351,0.471,0.4,0.801c0.4-0.736,0.953-1.105,1.657-1.105
		c0.241,0,0.446,0.045,0.614,0.133c0.167,0.088,0.302,0.213,0.404,0.375c0.102,0.162,0.176,0.357,0.223,0.586
		c0.046,0.227,0.069,0.48,0.069,0.762V91.98z"/>
	<path fill="#3773B2" d="M99.834,91.98l-1.749-4.297h0.578l1.476,3.777l1.484-3.777h0.544l-1.748,4.297H99.834z"/>
	<path fill="#3773B2" d="M104.798,92.063c-0.313,0-0.601-0.059-0.861-0.178c-0.262-0.117-0.488-0.279-0.681-0.486
		c-0.192-0.205-0.342-0.443-0.449-0.713s-0.161-0.559-0.161-0.865c0-0.303,0.054-0.588,0.161-0.854
		c0.107-0.268,0.256-0.5,0.445-0.701s0.416-0.361,0.681-0.479c0.264-0.119,0.549-0.178,0.857-0.178c0.313,0,0.601,0.059,0.861,0.178
		c0.261,0.117,0.485,0.279,0.672,0.482c0.188,0.203,0.333,0.438,0.438,0.701s0.156,0.543,0.156,0.84c0,0.045,0,0.088,0,0.133
		c0,0.043-0.003,0.074-0.008,0.09h-3.678c0.017,0.232,0.07,0.445,0.16,0.641c0.091,0.195,0.208,0.363,0.351,0.506
		c0.144,0.143,0.307,0.254,0.491,0.334c0.184,0.08,0.381,0.119,0.59,0.119c0.137,0,0.274-0.018,0.412-0.057
		c0.137-0.039,0.264-0.092,0.379-0.156c0.115-0.066,0.22-0.148,0.313-0.244s0.165-0.201,0.215-0.316l0.486,0.131
		c-0.066,0.16-0.16,0.305-0.28,0.434c-0.121,0.129-0.262,0.242-0.421,0.338s-0.335,0.17-0.527,0.223
		C105.207,92.037,105.007,92.063,104.798,92.063z M106.381,89.605c-0.016-0.23-0.069-0.441-0.16-0.631s-0.206-0.354-0.347-0.49
		c-0.14-0.139-0.303-0.246-0.486-0.322c-0.185-0.076-0.381-0.115-0.59-0.115s-0.406,0.039-0.594,0.115
		c-0.187,0.076-0.351,0.184-0.49,0.322c-0.141,0.137-0.253,0.301-0.338,0.494c-0.086,0.193-0.137,0.4-0.153,0.627H106.381z"/>
	<path fill="#3773B2" d="M116.276,91.98h-0.561v-2.4c0-0.5-0.079-0.869-0.239-1.105c-0.159-0.236-0.396-0.354-0.709-0.354
		c-0.165,0-0.32,0.029-0.466,0.09s-0.28,0.146-0.404,0.256c-0.123,0.111-0.232,0.24-0.325,0.393
		c-0.094,0.15-0.165,0.316-0.215,0.498v2.623h-0.561v-2.4c0-0.512-0.077-0.883-0.23-1.113c-0.154-0.23-0.391-0.346-0.71-0.346
		c-0.324,0-0.612,0.113-0.865,0.338s-0.435,0.521-0.545,0.891v2.631h-0.561v-4.297h0.512v0.973c0.176-0.33,0.406-0.586,0.692-0.77
		c0.286-0.186,0.603-0.277,0.948-0.277c0.363,0,0.653,0.102,0.87,0.305s0.351,0.471,0.4,0.801c0.4-0.736,0.953-1.105,1.657-1.105
		c0.241,0,0.446,0.045,0.614,0.133c0.167,0.088,0.302,0.213,0.404,0.375c0.102,0.162,0.176,0.357,0.223,0.586
		c0.046,0.227,0.069,0.48,0.069,0.762V91.98z"/>
	<path fill="#3773B2" d="M118.544,92.063c-0.203,0-0.392-0.035-0.564-0.104s-0.324-0.164-0.453-0.283
		c-0.13-0.121-0.229-0.264-0.302-0.426c-0.071-0.162-0.106-0.336-0.106-0.523s0.044-0.359,0.132-0.52s0.211-0.297,0.371-0.412
		c0.159-0.115,0.349-0.205,0.568-0.268c0.22-0.064,0.462-0.096,0.726-0.096c0.221,0,0.443,0.02,0.668,0.059
		c0.226,0.037,0.427,0.094,0.603,0.164v-0.387c0-0.379-0.107-0.682-0.322-0.904c-0.214-0.223-0.511-0.334-0.89-0.334
		c-0.221,0-0.445,0.045-0.677,0.133c-0.23,0.088-0.465,0.215-0.701,0.379l-0.197-0.371c0.555-0.373,1.094-0.561,1.616-0.561
		c0.538,0,0.962,0.152,1.27,0.453c0.308,0.303,0.462,0.721,0.462,1.254v1.938c0,0.154,0.068,0.23,0.206,0.23v0.496
		c-0.094,0.016-0.165,0.023-0.214,0.023c-0.144,0-0.255-0.035-0.334-0.105c-0.08-0.072-0.123-0.172-0.128-0.297l-0.017-0.34
		c-0.198,0.26-0.447,0.457-0.746,0.594C119.214,91.994,118.891,92.063,118.544,92.063z M118.677,91.633
		c0.291,0,0.559-0.055,0.804-0.164c0.244-0.109,0.43-0.256,0.557-0.438c0.049-0.049,0.086-0.104,0.111-0.16
		c0.024-0.059,0.037-0.111,0.037-0.16V90.01c-0.188-0.072-0.381-0.127-0.581-0.166c-0.201-0.037-0.406-0.057-0.615-0.057
		c-0.396,0-0.717,0.082-0.965,0.246c-0.247,0.166-0.37,0.383-0.37,0.652c0,0.131,0.025,0.256,0.078,0.371
		c0.052,0.115,0.123,0.215,0.214,0.301s0.199,0.152,0.326,0.201C118.398,91.609,118.533,91.633,118.677,91.633z"/>
	<path fill="#3773B2" d="M124.103,88.178c-0.38,0.012-0.709,0.117-0.99,0.314c-0.28,0.197-0.478,0.471-0.594,0.816v2.672h-0.561
		v-4.297h0.528v1.031c0.159-0.33,0.373-0.588,0.643-0.775s0.559-0.281,0.866-0.281c0.044,0,0.079,0.004,0.107,0.01V88.178z"/>
	<path fill="#3773B2" d="M127.92,91.98l-1.583-2.203l-0.924,0.859v1.344h-0.561v-6.02h0.561v4.09l2.417-2.359h0.635l-1.757,1.758
		l1.822,2.531H127.92z"/>
	<path fill="#3773B2" d="M130.303,92.063c-0.203,0-0.392-0.035-0.564-0.104s-0.324-0.164-0.453-0.283
		c-0.13-0.121-0.229-0.264-0.302-0.426c-0.071-0.162-0.106-0.336-0.106-0.523s0.044-0.359,0.132-0.52s0.211-0.297,0.371-0.412
		c0.159-0.115,0.349-0.205,0.568-0.268c0.22-0.064,0.462-0.096,0.726-0.096c0.221,0,0.443,0.02,0.668,0.059
		c0.226,0.037,0.427,0.094,0.603,0.164v-0.387c0-0.379-0.107-0.682-0.322-0.904c-0.214-0.223-0.511-0.334-0.89-0.334
		c-0.221,0-0.445,0.045-0.677,0.133c-0.23,0.088-0.465,0.215-0.701,0.379l-0.197-0.371c0.555-0.373,1.094-0.561,1.616-0.561
		c0.538,0,0.962,0.152,1.27,0.453c0.308,0.303,0.462,0.721,0.462,1.254v1.938c0,0.154,0.068,0.23,0.206,0.23v0.496
		c-0.094,0.016-0.165,0.023-0.214,0.023c-0.144,0-0.255-0.035-0.334-0.105c-0.08-0.072-0.123-0.172-0.128-0.297l-0.017-0.34
		c-0.198,0.26-0.447,0.457-0.746,0.594C130.973,91.994,130.649,92.063,130.303,92.063z M130.436,91.633
		c0.291,0,0.559-0.055,0.804-0.164c0.244-0.109,0.43-0.256,0.557-0.438c0.049-0.049,0.086-0.104,0.111-0.16
		c0.024-0.059,0.037-0.111,0.037-0.16V90.01c-0.188-0.072-0.381-0.127-0.581-0.166c-0.201-0.037-0.406-0.057-0.615-0.057
		c-0.396,0-0.717,0.082-0.965,0.246c-0.247,0.166-0.37,0.383-0.37,0.652c0,0.131,0.025,0.256,0.078,0.371
		c0.052,0.115,0.123,0.215,0.214,0.301s0.199,0.152,0.326,0.201C130.157,91.609,130.292,91.633,130.436,91.633z"/>
	<path fill="#3773B2" d="M136.067,93.299c0.044,0.006,0.086,0.01,0.127,0.014c0.042,0.002,0.081,0.004,0.12,0.004
		c0.099,0,0.177-0.014,0.235-0.041c0.058-0.029,0.113-0.088,0.169-0.182c0.055-0.094,0.116-0.229,0.186-0.404
		c0.068-0.176,0.166-0.412,0.292-0.709l-1.871-4.297h0.577l1.591,3.777l1.477-3.777h0.536l-2.227,5.541
		c-0.061,0.16-0.161,0.299-0.301,0.416c-0.141,0.119-0.332,0.178-0.573,0.178c-0.056,0-0.107,0-0.157-0.004
		c-0.049-0.002-0.109-0.01-0.181-0.02V93.299z"/>
	<path fill="#3773B2" d="M142.12,92.063c-0.313,0-0.6-0.059-0.857-0.178c-0.259-0.117-0.482-0.279-0.672-0.482
		c-0.19-0.203-0.337-0.439-0.441-0.709s-0.157-0.553-0.157-0.85c0-0.303,0.054-0.588,0.161-0.857s0.256-0.506,0.445-0.709
		s0.413-0.365,0.672-0.486s0.542-0.182,0.85-0.182s0.592,0.061,0.854,0.182c0.261,0.121,0.486,0.283,0.676,0.486
		s0.338,0.439,0.445,0.709s0.161,0.555,0.161,0.857c0,0.297-0.053,0.58-0.157,0.85s-0.251,0.506-0.44,0.709
		c-0.19,0.203-0.415,0.365-0.677,0.482C142.721,92.004,142.434,92.063,142.12,92.063z M140.562,89.852
		c0,0.242,0.041,0.467,0.124,0.674c0.082,0.205,0.193,0.387,0.334,0.543c0.14,0.156,0.305,0.279,0.494,0.367
		s0.392,0.133,0.606,0.133c0.214,0,0.416-0.047,0.605-0.137c0.19-0.09,0.356-0.215,0.499-0.371c0.144-0.156,0.256-0.34,0.339-0.549
		c0.082-0.209,0.123-0.434,0.123-0.676c0-0.236-0.041-0.461-0.123-0.672c-0.083-0.211-0.195-0.396-0.339-0.553
		c-0.143-0.156-0.309-0.279-0.499-0.371c-0.189-0.09-0.392-0.137-0.605-0.137c-0.215,0-0.415,0.047-0.603,0.137
		c-0.187,0.092-0.352,0.217-0.494,0.375c-0.144,0.16-0.256,0.346-0.338,0.557C140.603,89.385,140.562,89.611,140.562,89.852z
		 M141.271,86.76v-0.775h0.479v0.775H141.271z M142.499,86.76v-0.775h0.479v0.775H142.499z"/>
	<path fill="#3773B2" d="M148.808,91.98h-0.561v-2.4c0-0.512-0.076-0.883-0.228-1.113s-0.383-0.346-0.696-0.346
		c-0.165,0-0.33,0.029-0.495,0.09s-0.317,0.146-0.457,0.256c-0.141,0.111-0.266,0.24-0.376,0.393
		c-0.109,0.15-0.189,0.314-0.239,0.49v2.631h-0.561v-4.297h0.512v0.973c0.176-0.313,0.427-0.566,0.754-0.758
		c0.327-0.193,0.684-0.289,1.068-0.289c0.236,0,0.437,0.045,0.602,0.133s0.297,0.211,0.396,0.371
		c0.099,0.158,0.17,0.354,0.214,0.584c0.044,0.232,0.066,0.486,0.066,0.768V91.98z"/>
	<path fill="#3773B2" d="M151.858,92.063c-0.313,0-0.601-0.059-0.861-0.178c-0.262-0.117-0.488-0.279-0.681-0.486
		c-0.192-0.205-0.342-0.443-0.449-0.713s-0.161-0.559-0.161-0.865c0-0.303,0.054-0.588,0.161-0.854
		c0.107-0.268,0.256-0.5,0.445-0.701s0.416-0.361,0.681-0.479c0.264-0.119,0.549-0.178,0.857-0.178c0.313,0,0.601,0.059,0.861,0.178
		c0.261,0.117,0.485,0.279,0.672,0.482c0.188,0.203,0.333,0.438,0.438,0.701s0.156,0.543,0.156,0.84c0,0.045,0,0.088,0,0.133
		c0,0.043-0.003,0.074-0.008,0.09h-3.678c0.017,0.232,0.07,0.445,0.16,0.641c0.091,0.195,0.208,0.363,0.351,0.506
		c0.144,0.143,0.307,0.254,0.491,0.334c0.184,0.08,0.381,0.119,0.59,0.119c0.137,0,0.274-0.018,0.412-0.057
		c0.137-0.039,0.264-0.092,0.379-0.156c0.115-0.066,0.22-0.148,0.313-0.244s0.165-0.201,0.215-0.316l0.486,0.131
		c-0.066,0.16-0.16,0.305-0.28,0.434c-0.121,0.129-0.262,0.242-0.421,0.338s-0.335,0.17-0.527,0.223
		C152.268,92.037,152.067,92.063,151.858,92.063z M153.441,89.605c-0.016-0.23-0.069-0.441-0.16-0.631s-0.206-0.354-0.347-0.49
		c-0.14-0.139-0.303-0.246-0.486-0.322c-0.185-0.076-0.381-0.115-0.59-0.115s-0.406,0.039-0.594,0.115
		c-0.187,0.076-0.351,0.184-0.49,0.322c-0.141,0.137-0.253,0.301-0.338,0.494c-0.086,0.193-0.137,0.4-0.153,0.627H153.441z"/>
	<path fill="#3773B2" d="M156.905,91.773c-0.032,0.018-0.081,0.039-0.144,0.066c-0.063,0.027-0.137,0.055-0.219,0.082
		c-0.083,0.027-0.176,0.053-0.28,0.074s-0.215,0.033-0.33,0.033c-0.121,0-0.236-0.016-0.347-0.049
		c-0.109-0.033-0.206-0.084-0.288-0.152c-0.083-0.07-0.148-0.156-0.198-0.26c-0.05-0.105-0.074-0.227-0.074-0.363v-3.076h-0.594
		v-0.445h0.594v-1.451h0.561v1.451h0.99v0.445h-0.99v2.92c0.011,0.158,0.067,0.275,0.169,0.35s0.219,0.111,0.351,0.111
		c0.159,0,0.3-0.025,0.421-0.078s0.198-0.09,0.23-0.111L156.905,91.773z"/>
	<path fill="#3773B2" d="M157.606,86.785v-0.824h0.561v0.824H157.606z M157.606,91.98v-4.297h0.561v4.297H157.606z"/>
	<path fill="#3773B2" d="M165.795,91.98h-0.561v-2.4c0-0.5-0.079-0.869-0.239-1.105c-0.159-0.236-0.396-0.354-0.709-0.354
		c-0.165,0-0.32,0.029-0.466,0.09s-0.28,0.146-0.404,0.256c-0.123,0.111-0.232,0.24-0.325,0.393
		c-0.094,0.15-0.165,0.316-0.215,0.498v2.623h-0.561v-2.4c0-0.512-0.077-0.883-0.23-1.113c-0.154-0.23-0.391-0.346-0.71-0.346
		c-0.324,0-0.612,0.113-0.865,0.338s-0.435,0.521-0.545,0.891v2.631h-0.561v-4.297h0.512v0.973c0.176-0.33,0.406-0.586,0.692-0.77
		c0.286-0.186,0.603-0.277,0.948-0.277c0.363,0,0.653,0.102,0.87,0.305s0.351,0.471,0.4,0.801c0.4-0.736,0.953-1.105,1.657-1.105
		c0.241,0,0.446,0.045,0.614,0.133c0.167,0.088,0.302,0.213,0.404,0.375c0.102,0.162,0.176,0.357,0.223,0.586
		c0.046,0.227,0.069,0.48,0.069,0.762V91.98z"/>
	<path fill="#3773B2" d="M172.697,91.98h-0.561v-2.4c0-0.488-0.084-0.854-0.252-1.096s-0.414-0.363-0.738-0.363
		c-0.159,0-0.317,0.031-0.474,0.094c-0.157,0.064-0.304,0.15-0.441,0.26c-0.138,0.111-0.257,0.24-0.358,0.389
		c-0.103,0.148-0.178,0.311-0.228,0.486v2.631h-0.561v-6.02h0.561v2.695c0.171-0.324,0.407-0.58,0.71-0.766
		c0.302-0.188,0.629-0.281,0.98-0.281c0.248,0,0.457,0.045,0.627,0.137c0.171,0.09,0.311,0.217,0.421,0.379
		c0.109,0.162,0.189,0.357,0.239,0.586c0.049,0.229,0.074,0.479,0.074,0.754V91.98z"/>
	<path fill="#3773B2" d="M173.893,86.785v-0.824h0.561v0.824H173.893z M173.893,91.98v-4.297h0.561v4.297H173.893z"/>
	<path fill="#3773B2" d="M175.328,91.602l2.902-3.498h-2.837v-0.42h3.447v0.379l-2.895,3.496h2.886v0.422h-3.504V91.602z"/>
	<path fill="#3773B2" d="M186.138,91.98h-0.561v-2.4c0-0.5-0.079-0.869-0.239-1.105c-0.159-0.236-0.396-0.354-0.709-0.354
		c-0.165,0-0.32,0.029-0.466,0.09s-0.28,0.146-0.404,0.256c-0.123,0.111-0.232,0.24-0.325,0.393
		c-0.094,0.15-0.165,0.316-0.215,0.498v2.623h-0.561v-2.4c0-0.512-0.077-0.883-0.23-1.113c-0.154-0.23-0.391-0.346-0.71-0.346
		c-0.324,0-0.612,0.113-0.865,0.338s-0.435,0.521-0.545,0.891v2.631h-0.561v-4.297h0.512v0.973c0.176-0.33,0.406-0.586,0.692-0.77
		c0.286-0.186,0.603-0.277,0.948-0.277c0.363,0,0.653,0.102,0.87,0.305s0.351,0.471,0.4,0.801c0.4-0.736,0.953-1.105,1.657-1.105
		c0.241,0,0.446,0.045,0.614,0.133c0.167,0.088,0.302,0.213,0.404,0.375c0.102,0.162,0.176,0.357,0.223,0.586
		c0.046,0.227,0.069,0.48,0.069,0.762V91.98z"/>
	<path fill="#3773B2" d="M189.181,92.063c-0.313,0-0.601-0.059-0.861-0.178c-0.262-0.117-0.488-0.279-0.681-0.486
		c-0.192-0.205-0.342-0.443-0.449-0.713s-0.161-0.559-0.161-0.865c0-0.303,0.054-0.588,0.161-0.854
		c0.107-0.268,0.256-0.5,0.445-0.701s0.416-0.361,0.681-0.479c0.264-0.119,0.549-0.178,0.857-0.178c0.313,0,0.601,0.059,0.861,0.178
		c0.261,0.117,0.485,0.279,0.672,0.482c0.188,0.203,0.333,0.438,0.438,0.701s0.156,0.543,0.156,0.84c0,0.045,0,0.088,0,0.133
		c0,0.043-0.003,0.074-0.008,0.09h-3.678c0.017,0.232,0.07,0.445,0.16,0.641c0.091,0.195,0.208,0.363,0.351,0.506
		c0.144,0.143,0.307,0.254,0.491,0.334c0.184,0.08,0.381,0.119,0.59,0.119c0.137,0,0.274-0.018,0.412-0.057
		c0.137-0.039,0.264-0.092,0.379-0.156c0.115-0.066,0.22-0.148,0.313-0.244s0.165-0.201,0.215-0.316l0.486,0.131
		c-0.066,0.16-0.16,0.305-0.28,0.434c-0.121,0.129-0.262,0.242-0.421,0.338s-0.335,0.17-0.527,0.223
		C189.59,92.037,189.39,92.063,189.181,92.063z M190.764,89.605c-0.016-0.23-0.069-0.441-0.16-0.631s-0.206-0.354-0.347-0.49
		c-0.14-0.139-0.303-0.246-0.486-0.322c-0.185-0.076-0.381-0.115-0.59-0.115s-0.406,0.039-0.594,0.115
		c-0.187,0.076-0.351,0.184-0.49,0.322c-0.141,0.137-0.253,0.301-0.338,0.494c-0.086,0.193-0.137,0.4-0.153,0.627H190.764z"/>
	<path fill="#3773B2" d="M194.228,91.773c-0.032,0.018-0.081,0.039-0.144,0.066c-0.063,0.027-0.137,0.055-0.219,0.082
		c-0.083,0.027-0.176,0.053-0.28,0.074s-0.215,0.033-0.33,0.033c-0.121,0-0.236-0.016-0.347-0.049
		c-0.109-0.033-0.206-0.084-0.288-0.152c-0.083-0.07-0.148-0.156-0.198-0.26c-0.05-0.105-0.074-0.227-0.074-0.363v-3.076h-0.594
		v-0.445h0.594v-1.451h0.561v1.451h0.99v0.445h-0.99v2.92c0.011,0.158,0.067,0.275,0.169,0.35s0.219,0.111,0.351,0.111
		c0.159,0,0.3-0.025,0.421-0.078s0.198-0.09,0.23-0.111L194.228,91.773z"/>
	<path fill="#3773B2" d="M194.954,85.961h0.561v5.047c0,0.158,0.044,0.283,0.132,0.375c0.088,0.09,0.212,0.135,0.371,0.135
		c0.061,0,0.132-0.008,0.214-0.023c0.083-0.018,0.16-0.039,0.231-0.066l0.099,0.453c-0.104,0.045-0.232,0.08-0.383,0.107
		c-0.151,0.027-0.282,0.041-0.393,0.041c-0.258,0-0.461-0.072-0.609-0.219c-0.148-0.145-0.223-0.35-0.223-0.613V85.961z"/>
	<path fill="#3773B2" d="M199.027,92.063c-0.313,0-0.601-0.059-0.861-0.178c-0.262-0.117-0.488-0.279-0.681-0.486
		c-0.192-0.205-0.342-0.443-0.449-0.713s-0.161-0.559-0.161-0.865c0-0.303,0.054-0.588,0.161-0.854
		c0.107-0.268,0.256-0.5,0.445-0.701s0.416-0.361,0.681-0.479c0.264-0.119,0.549-0.178,0.857-0.178c0.313,0,0.601,0.059,0.861,0.178
		c0.261,0.117,0.485,0.279,0.672,0.482c0.188,0.203,0.333,0.438,0.438,0.701s0.156,0.543,0.156,0.84c0,0.045,0,0.088,0,0.133
		c0,0.043-0.003,0.074-0.008,0.09h-3.678c0.017,0.232,0.07,0.445,0.16,0.641c0.091,0.195,0.208,0.363,0.351,0.506
		c0.144,0.143,0.307,0.254,0.491,0.334c0.184,0.08,0.381,0.119,0.59,0.119c0.137,0,0.274-0.018,0.412-0.057
		c0.137-0.039,0.264-0.092,0.379-0.156c0.115-0.066,0.22-0.148,0.313-0.244s0.165-0.201,0.215-0.316l0.486,0.131
		c-0.066,0.16-0.16,0.305-0.28,0.434c-0.121,0.129-0.262,0.242-0.421,0.338s-0.335,0.17-0.527,0.223
		C199.437,92.037,199.236,92.063,199.027,92.063z M200.61,89.605c-0.016-0.23-0.069-0.441-0.16-0.631s-0.206-0.354-0.347-0.49
		c-0.14-0.139-0.303-0.246-0.486-0.322c-0.185-0.076-0.381-0.115-0.59-0.115s-0.406,0.039-0.594,0.115
		c-0.187,0.076-0.351,0.184-0.49,0.322c-0.141,0.137-0.253,0.301-0.338,0.494c-0.086,0.193-0.137,0.4-0.153,0.627H200.61z"/>
	<path fill="#3773B2" d="M204.157,88.178c-0.38,0.012-0.709,0.117-0.99,0.314c-0.28,0.197-0.478,0.471-0.594,0.816v2.672h-0.561
		v-4.297h0.528v1.031c0.159-0.33,0.373-0.588,0.643-0.775s0.559-0.281,0.866-0.281c0.044,0,0.079,0.004,0.107,0.01V88.178z"/>
	<path fill="#3773B2" d="M204.907,86.785v-0.824h0.561v0.824H204.907z M204.907,91.98v-4.297h0.561v4.297H204.907z"/>
</g>
<path fill="#3777BC" d="M91.021,57.924h2.93v4.1c2.315-3.125,5.161-4.687,8.537-4.687c1.646,0,3.139,0.425,4.478,1.275
	c1.34,0.852,2.322,2.016,2.951,3.495c0.627,1.48,0.941,3.766,0.941,6.864v11.716h-2.887v-10.84c0-2.563-0.113-4.321-0.335-5.27
	c-0.728-3.013-2.637-4.521-5.735-4.521c-1.782,0-3.375,0.58-4.768,1.738c-1.396,1.159-2.319,2.614-2.766,4.373
	c-0.278,1.088-0.417,3.153-0.417,6.192v8.328h-2.93V57.924z"/>
<path fill="#3777BC" d="M128.556,60.434l-1.88,1.924c-1.565-1.506-3.084-2.258-4.561-2.258c-0.923,0-1.731,0.299-2.43,0.899
	c-0.698,0.6-1.047,1.348-1.047,2.239c0,1.507,1.451,3.015,4.354,4.519c1.784,0.922,3.081,1.801,3.892,2.636
	c1.144,1.175,1.715,2.568,1.715,4.185c0,1.926-0.662,3.522-1.988,4.792c-1.325,1.269-2.962,1.902-4.917,1.902
	c-2.789,0-5.02-1.071-6.694-3.221l1.842-2.092c1.478,1.702,3.055,2.553,4.727,2.553c1.117,0,2.102-0.363,2.951-1.088
	c0.852-0.727,1.276-1.632,1.276-2.721c0-1.088-0.504-2.049-1.506-2.887c-0.505-0.419-1.494-1.005-2.971-1.758
	c-1.702-0.864-2.943-1.73-3.726-2.594c-1.058-1.142-1.59-2.51-1.59-4.102c0-1.757,0.599-3.2,1.801-4.331
	c1.2-1.129,2.678-1.694,4.437-1.694C124.33,57.337,126.438,58.37,128.556,60.434"/>
<path fill="#3777BC" d="M133.369,57.924h2.928v10.628c0,2.624,0.139,4.409,0.418,5.356c0.447,1.451,1.283,2.581,2.512,3.39
	c1.174,0.753,2.537,1.131,4.101,1.131c1.534,0,2.872-0.351,4.019-1.047c1.198-0.782,2.036-1.854,2.511-3.224
	c0.278-0.891,0.418-2.761,0.418-5.606V57.924h3.012v11.172c0,2.567-0.248,4.602-0.751,6.11c-0.669,2.063-1.884,3.64-3.643,4.728
	c-1.477,0.895-3.333,1.34-5.565,1.34c-4.352,0-7.309-1.701-8.872-5.106c-0.723-1.617-1.086-4.044-1.086-7.282V57.924z"/>
<rect x="159.314" y="49.136" fill="#3777BC" width="2.929" height="31.552"/>
<polygon fill="#3777BC" points="170.904,49.471 173.832,49.471 173.832,57.922 178.478,57.922 178.478,60.434 173.832,60.434 
	173.832,80.686 170.904,80.686 170.904,60.434 166.888,60.434 166.888,57.922 170.904,57.922 "/>
<path fill="#3777BC" d="M205.552,57.924v22.764h-2.888v-3.893c-2.484,2.986-5.537,4.479-9.165,4.479
	c-3.292,0-6.066-1.186-8.325-3.557c-2.232-2.317-3.349-5.133-3.349-8.453c0-3.292,1.146-6.102,3.431-8.433
	c2.286-2.329,5.063-3.494,8.329-3.494c3.766,0,6.792,1.589,9.079,4.77v-4.184H205.552z M193.836,60.183
	c-3.488,0-6.097,1.522-7.826,4.563c-0.808,1.449-1.215,2.983-1.215,4.601c0,1.619,0.414,3.159,1.234,4.625
	c0.823,1.463,1.927,2.601,3.308,3.41c1.38,0.812,2.867,1.212,4.457,1.212c1.614,0,3.144-0.4,4.581-1.212
	c1.436-0.81,2.539-1.903,3.306-3.284c0.769-1.382,1.151-2.937,1.151-4.668c0-2.593-0.851-4.785-2.553-6.569
	C198.576,61.077,196.432,60.183,193.836,60.183"/>
<polygon fill="#808285" points="36,49 36,56.698 51.764,56.698 "/>
<polygon fill="#808285" points="87.756,49 87.756,56.698 71.994,56.698 "/>
<path fill="#3777BC" d="M62.52,69.492c0,6.703,5.431,12.135,12.133,12.135c6.701,0,12.134-5.433,12.134-12.135
	c0-6.702-5.433-12.133-12.134-12.133C67.95,57.358,62.52,62.79,62.52,69.492 M66.322,69.492c0-4.601,3.729-8.332,8.33-8.332
	c4.604,0,8.332,3.731,8.332,8.332c0,4.602-3.729,8.333-8.332,8.333C70.051,77.824,66.322,74.094,66.322,69.492"/>
<path fill="#808285" d="M70.011,69.492c0,2.565,2.077,4.641,4.642,4.641c2.562,0,4.641-2.076,4.641-4.641
	c0-2.563-2.079-4.64-4.641-4.64C72.088,64.852,70.011,66.928,70.011,69.492"/>
<polygon fill="#808285" points="58.007,79.857 64.752,79.857 61.382,88.816 "/>
<path fill="#3777BC" d="M54.007,76.219c-1.376,1.005-3.067,1.605-4.903,1.605c-4.602,0-8.329-3.73-8.329-8.333
	c0-4.601,3.728-8.332,8.329-8.332c2.117,0,4.047,0.791,5.518,2.09h4.873c-2.121-3.526-5.974-5.891-10.391-5.891
	c-6.7,0-12.134,5.433-12.134,12.133c0,6.703,5.434,12.135,12.134,12.135c4.214,0,7.924-2.149,10.098-5.408H54.007z"/>
<path fill="#808285" d="M44.465,69.492c0,2.565,2.077,4.641,4.642,4.641c2.562,0,4.641-2.076,4.641-4.641
	c0-2.563-2.079-4.64-4.641-4.64C46.542,64.852,44.465,66.928,44.465,69.492"/>
</svg>
